<svg xmlns="http://www.w3.org/2000/svg"  viewBox="0 0 100 100" width="100px" height="100px"><path d="M 71.441406 24.970703 A 0.50005 0.50005 0 0 0 71.277344 25 L 71.189453 25 L 25 25 A 1.0001 1.0001 0 0 0 24 26 L 24 27.585938 L 21.707031 25.292969 A 1.0001 1.0001 0 0 0 21 25 L 1 25 A 1.0001 1.0001 0 0 0 0.19921875 26.599609 L 3 30.333984 L 3 78 A 1.0001 1.0001 0 0 0 4.6289062 78.777344 L 25.085938 62.216797 L 39.486328 70.857422 A 1.0001 1.0001 0 0 0 40.599609 70.800781 L 48 65.25 L 55.400391 70.800781 A 1.0001 1.0001 0 0 0 56.513672 70.857422 L 70.990234 62.171875 L 78.470703 66.847656 A 1.0001 1.0001 0 0 0 80 66 L 80 59.767578 L 82.130859 63.496094 A 1.0001 1.0001 0 0 0 83.869141 63.496094 L 86 59.767578 L 86 72 A 1.0001 1.0001 0 0 0 86.445312 72.832031 L 95.445312 78.832031 A 1.0001 1.0001 0 0 0 97 78 L 97 30.333984 L 99.800781 26.599609 A 1.0001 1.0001 0 0 0 99 25 L 87 25 A 1.0001 1.0001 0 0 0 86.072266 25.628906 L 83 33.308594 L 79.927734 25.628906 A 1.0001 1.0001 0 0 0 79 25 L 71.613281 25 A 0.50005 0.50005 0 0 0 71.441406 24.970703 z M 3 27 L 20.585938 27 L 24.292969 30.707031 A 1.0001 1.0001 0 0 0 25 31 L 25 50.5 A 0.50005 0.50005 0 1 0 26 50.5 L 26 30.5 A 0.50005 0.50005 0 0 0 25.955078 30.289062 A 1.0001 1.0001 0 0 0 26 30 L 26 27 L 48 27 L 48 50 A 0.50005 0.50005 0 1 0 49 50 L 49 27 L 70.947266 27 L 70.947266 27.925781 A 0.50005 0.50005 0 1 0 71.947266 27.925781 L 71.947266 27 L 78.322266 27 L 82.072266 36.371094 A 1.0001 1.0001 0 0 0 83.927734 36.371094 L 87.675781 27 L 97 27 L 95.199219 29.400391 A 1.0001 1.0001 0 0 0 95 30 L 95 76.130859 L 88 71.464844 L 88 56 A 1.0001 1.0001 0 0 0 86.130859 55.503906 L 83 60.982422 L 79.869141 55.503906 A 1.0001 1.0001 0 0 0 78 56 L 78 64.197266 L 71.947266 60.414062 L 71.947266 34.425781 A 0.50005 0.50005 0 0 0 71.441406 33.917969 A 0.50005 0.50005 0 0 0 70.947266 34.425781 L 70.947266 60.001953 A 1.0001 1.0001 0 0 0 70.486328 60.142578 L 56.0625 68.796875 L 49 63.5 L 49 62 A 0.50005 0.50005 0 0 0 48.492188 61.492188 A 0.50005 0.50005 0 0 0 48 62 L 48 63 A 1.0001 1.0001 0 0 0 47.400391 63.199219 L 39.9375 68.796875 L 26 60.433594 L 26 56.5 A 0.50005 0.50005 0 0 0 25.492188 55.992188 A 0.50005 0.50005 0 0 0 25 56.5 L 25 60.001953 A 1.0001 1.0001 0 0 0 24.371094 60.222656 L 5 75.904297 L 5 30 A 1.0001 1.0001 0 0 0 4.8007812 29.400391 L 3 27 z M 71.441406 29.992188 A 0.50005 0.50005 0 0 0 70.947266 30.5 L 70.947266 31.925781 A 0.50005 0.50005 0 1 0 71.947266 31.925781 L 71.947266 30.5 A 0.50005 0.50005 0 0 0 71.441406 29.992188 z M 11.5 35 A 0.50005 0.50005 0 1 0 11.5 36 L 18 36 L 18 53.242188 L 12 57.529297 L 12 41.5 A 0.50005 0.50005 0 1 0 11 41.5 L 11 58.5 A 0.50005 0.50005 0 0 0 11.791016 58.90625 L 18.791016 53.90625 A 0.50005 0.50005 0 0 0 19 53.5 L 19 35.5 A 0.50005 0.50005 0 0 0 18.5 35 L 11.5 35 z M 32.5 35 A 0.50005 0.50005 0 0 0 32 35.5 L 32 53.5 A 0.50005 0.50005 0 0 0 32.251953 53.933594 L 39.183594 57.894531 A 0.50005 0.50005 0 0 0 39.638672 57.986328 A 0.50005 0.50005 0 0 0 39.654297 57.982422 A 0.50005 0.50005 0 0 0 39.685547 57.970703 A 0.50005 0.50005 0 0 0 39.730469 57.949219 A 0.50005 0.50005 0 0 0 39.746094 57.941406 A 0.50005 0.50005 0 0 0 39.751953 57.939453 A 0.50005 0.50005 0 0 0 39.785156 57.917969 A 0.50005 0.50005 0 0 0 39.789062 57.916016 A 0.50005 0.50005 0 0 0 39.814453 57.896484 A 0.50005 0.50005 0 0 0 39.828125 57.884766 A 0.50005 0.50005 0 0 0 40 57.429688 L 40 56.5 A 0.50005 0.50005 0 1 0 39 56.5 L 39 56.638672 L 33 53.208984 L 33 36 L 39 36 L 39 49 A 0.50005 0.50005 0 1 0 40 49 L 40 35.5 A 0.50005 0.50005 0 0 0 39.5 35 L 32.5 35 z M 56.5 35 A 0.50005 0.50005 0 0 0 56 35.5 L 56 57.5 A 0.50005 0.50005 0 0 0 56.748047 57.933594 L 63.748047 53.933594 A 0.50005 0.50005 0 1 0 63.251953 53.066406 L 57 56.638672 L 57 36 L 63 36 L 63 46.5 A 0.50005 0.50005 0 1 0 64 46.5 L 64 35.5 A 0.50005 0.50005 0 0 0 63.5 35 L 56.5 35 z M 11.492188 36.992188 A 0.50005 0.50005 0 0 0 11 37.5 L 11 38.5 A 0.50005 0.50005 0 1 0 12 38.5 L 12 37.5 A 0.50005 0.50005 0 0 0 11.492188 36.992188 z M 63.492188 48.992188 A 0.50005 0.50005 0 0 0 63 49.5 L 63 50.5 A 0.50005 0.50005 0 1 0 64 50.5 L 64 49.5 A 0.50005 0.50005 0 0 0 63.492188 48.992188 z M 39.492188 50.992188 A 0.50005 0.50005 0 0 0 39 51.5 L 39 54 A 0.50005 0.50005 0 1 0 40 54 L 40 51.5 A 0.50005 0.50005 0 0 0 39.492188 50.992188 z M 48.492188 51.992188 A 0.50005 0.50005 0 0 0 48 52.5 L 48 53.5 A 0.50005 0.50005 0 1 0 49 53.5 L 49 52.5 A 0.50005 0.50005 0 0 0 48.492188 51.992188 z M 25.492188 52.492188 A 0.50005 0.50005 0 0 0 25 53 L 25 54 A 0.50005 0.50005 0 1 0 26 54 L 26 53 A 0.50005 0.50005 0 0 0 25.492188 52.492188 z M 48.492188 55.992188 A 0.50005 0.50005 0 0 0 48 56.5 L 48 58.947266 A 0.50005 0.50005 0 1 0 49 58.947266 L 49 56.5 A 0.50005 0.50005 0 0 0 48.492188 55.992188 z"/></svg>